<svg
    xmlns:dc="http://purl.org/dc/elements/1.1/"
    xmlns:cc="http://creativecommons.org/ns#"
    xmlns:rdf="http://www.w3.org/1999/02/22-rdf-syntax-ns#"
    xmlns:svg="http://www.w3.org/2000/svg"
    xmlns="http://www.w3.org/2000/svg"
    xmlns:sodipodi="http://sodipodi.sourceforge.net/DTD/sodipodi-0.dtd"
    xmlns:inkscape="http://www.inkscape.org/namespaces/inkscape" version="1.1" x="0px" y="0px" viewBox="0 0 100 100">
    <g transform="translate(0,-952.36218)">
        <path style="text-indent:0;text-transform:none;direction:ltr;block-progression:tb;baseline-shift:baseline;color:#000000;enable-background:accumulate;" d="m 50.062497,957.36964 c 0.25586,0.0126 0.4893,0.0653 0.6875,0.125 l 39.999999,16 c 0.7397,0.29923 1.25829,1.07711 1.25,1.875 l 0,54.00006 c -0.004,0.7875 -0.51999,1.5484 -1.25,1.8437 l -39.999999,16.0001 c -0.47513,0.1921 -1.02487,0.1921 -1.5,0 L 9.2499966,1031.2134 c -0.73001,-0.2953 -1.24589,-1.0562 -1.25,-1.8437 l 0,-54.00006 c -0.008,-0.79789 0.5103,-1.57577 1.25,-1.875 l 40.0000004,-16 c 0.27834,-0.11001 0.55664,-0.13757 0.8125,-0.125 z m -0.0625,4.15625 -34.59375,13.84375 12.6875,5.0625 32.65625,-14.59375 -10.75,-4.3125 z m 19.625,7.84375 -33.71875,14.1875 14.09375,5.625 34.59375,-13.8125 -14.96875,-6 z m 18.375,8.9375 -36,14.40625 0,49.65631 36,-14.375 0,-49.68756 z m -76,0 0,49.68756 14,5.5938 0,-15.2188 8,3 0,15.4062 14,5.5938 0,-49.65631 -14,-5.59375 0,15.24996 -8,-2.99996 0,-15.46875 -14,-5.59375 z" fill="#000000" fill-opacity="1" stroke="none" marker="none" visibility="visible" display="inline" overflow="visible"/>
    </g>
</svg>